<?xml version="1.0" standalone="no"?>
<!DOCTYPE svg PUBLIC "-//W3C//DTD SVG 20010904//EN"
 "http://www.w3.org/TR/2001/REC-SVG-20010904/DTD/svg10.dtd">
<svg version="1.0" xmlns="http://www.w3.org/2000/svg"
 width="100.000000pt" height="100.000000pt" viewBox="0 0 100.000000 100.000000"
 preserveAspectRatio="xMidYMid meet">

<g transform="translate(0.000000,100.000000) scale(0.100000,-0.100000)"
fill="#000000" stroke="none">
<path d="M402 815 c-101 -24 -189 -46 -197 -49 -13 -4 -15 -51 -15 -296 l0
-290 27 -11 c17 -6 113 -9 253 -7 192 3 230 6 257 21 46 24 63 64 63 142 0 58
2 65 19 65 33 0 51 28 51 78 0 56 -7 69 -40 73 -24 4 -25 8 -30 80 -6 88 -24
122 -74 140 -24 9 -39 22 -45 41 -7 21 -16 28 -35 28 -16 0 -26 6 -26 15 0 19
5 20 -208 -30z m196 23 c-3 -8 -39 -18 -84 -25 -115 -17 -120 -14 -19 12 111
28 108 28 103 13z m65 -37 c3 -11 2 -22 -1 -25 -3 -3 -84 -5 -181 -5 l-176 1
150 23 c196 29 202 29 208 6z m78 -80 c27 -27 29 -35 29 -105 l0 -76 -92 0
c-107 0 -128 -11 -128 -70 0 -55 26 -74 111 -78 l69 -4 0 -54 c0 -42 -5 -59
-24 -81 l-24 -28 -189 -3 c-116 -2 -199 0 -215 7 -25 10 -28 15 -28 61 0 30
-4 50 -11 50 -8 0 -10 -16 -6 -47 9 -80 18 -83 233 -83 214 0 246 8 269 64 8
20 15 54 15 76 0 22 5 40 10 40 6 0 10 -30 10 -69 0 -83 -22 -117 -85 -131
-44 -10 -434 -14 -459 -4 -14 5 -16 40 -16 285 l0 279 251 0 251 0 29 -29z
m99 -251 l0 -60 -122 0 c-133 0 -158 9 -158 58 0 54 21 62 157 62 l123 0 0
-60z"/>
<path d="M249 703 c-18 -20 -27 -243 -10 -243 7 0 11 45 13 123 l3 122 200 5
200 6 -196 2 c-172 2 -198 0 -210 -15z"/>
<path d="M334 621 c15 -16 15 -19 1 -31 -9 -7 -13 -15 -10 -18 2 -3 11 1 20 8
12 10 18 10 33 -1 9 -7 1 4 -17 24 -19 20 -37 37 -40 37 -2 0 3 -8 13 -19z"/>
<path d="M375 630 c-3 -5 -1 -10 4 -10 6 0 11 5 11 10 0 6 -2 10 -4 10 -3 0
-8 -4 -11 -10z"/>
<path d="M504 621 c15 -16 15 -19 1 -31 -9 -7 -13 -15 -10 -18 2 -3 11 1 20 8
12 10 18 10 33 -1 9 -7 1 4 -17 24 -19 20 -37 37 -40 37 -2 0 3 -8 13 -19z"/>
<path d="M545 630 c-3 -5 -1 -10 4 -10 6 0 11 5 11 10 0 6 -2 10 -4 10 -3 0
-8 -4 -11 -10z"/>
<path d="M730 630 c0 -5 5 -10 10 -10 6 0 10 5 10 10 0 6 -4 10 -10 10 -5 0
-10 -4 -10 -10z"/>
<path d="M730 580 c0 -11 5 -20 10 -20 6 0 10 9 10 20 0 11 -4 20 -10 20 -5 0
-10 -9 -10 -20z"/>
<path d="M230 380 c0 -11 5 -20 10 -20 6 0 10 9 10 20 0 11 -4 20 -10 20 -5 0
-10 -9 -10 -20z"/>
<path d="M310 383 c0 -6 7 -16 15 -23 14 -11 14 -15 -2 -34 -18 -21 -18 -21 3
-4 19 17 21 17 37 1 9 -10 17 -13 17 -7 0 5 -16 25 -35 44 -19 19 -35 29 -35
23z"/>
<path d="M480 383 c0 -6 7 -16 15 -23 14 -11 14 -15 -2 -34 -18 -21 -18 -21 3
-4 19 17 21 17 37 1 9 -10 17 -13 17 -7 0 5 -16 25 -35 44 -19 19 -35 29 -35
23z"/>
<path d="M620 484 c-11 -12 -10 -18 3 -32 16 -15 18 -15 34 0 13 14 14 20 3
32 -7 9 -16 16 -20 16 -4 0 -13 -7 -20 -16z m31 -17 c-1 -12 -15 -9 -19 4 -3
6 1 10 8 8 6 -3 11 -8 11 -12z"/>
</g>
</svg>
